{
  "accessors": [
    {
      "bufferView": 1,
      "componentType": 5126,
      "count": 528,
      "max": [
        -0.05836600065231323,
        0.07512199878692627,
        0.0842680037021637
      ],
      "min": [
        -0.08331800252199173,
        -0.07512199878692627,
        -0.0842680037021637
      ],
      "type": "VEC3"
    },
    {
      "bufferView": 1,
      "byteOffset": 6336,
      "componentType": 5126,
      "count": 528,
      "max": [
        1.0,
        0.9914459586143494,
        0.9914460182189941
      ],
      "min": [
        -1.0,
        -0.9914459586143494,
        -0.9914460182189941
      ],
      "type": "VEC3"
    },
    {
      "bufferView": 0,
      "componentType": 5125,
      "count": 828,
      "type": "SCALAR"
    },
    {
      "bufferView": 1,
      "byteOffset": 12672,
      "componentType": 5126,
      "count": 4722,
      "max": [
        0.20791399478912354,
        0.4525910019874573,
        0.4525910019874573
      ],
      "min": [
        -0.20387999713420868,
        -0.4525910019874573,
        -0.4525910019874573
      ],
      "type": "VEC3"
    },
    {
      "bufferView": 1,
      "byteOffset": 69336,
      "componentType": 5126,
      "count": 4722,
      "max": [
        1.0,
        1.0,
        1.0
      ],
      "min": [
        -1.0,
        -1.0,
        -1.0
      ],
      "type": "VEC3"
    },
    {
      "bufferView": 0,
      "byteOffset": 3312,
      "componentType": 5125,
      "count": 26256,
      "type": "SCALAR"
    },
    {
      "bufferView": 1,
      "byteOffset": 126000,
      "componentType": 5126,
      "count": 27506,
      "max": [
        0.26459801197052,
        0.834089994430542,
        0.8333650231361389
      ],
      "min": [
        -0.26459801197052,
        -0.8352950215339661,
        -0.8323860168457031
      ],
      "type": "VEC3"
    },
    {
      "bufferView": 1,
      "byteOffset": 456072,
      "componentType": 5126,
      "count": 27506,
      "max": [
        0.9990248680114746,
        0.9977759718894958,
        0.9999188780784607
      ],
      "min": [
        -0.9990248084068298,
        -0.9983817338943481,
        -0.9998604655265808
      ],
      "type": "VEC3"
    },
    {
      "bufferView": 0,
      "byteOffset": 108336,
      "componentType": 5125,
      "count": 42378,
      "type": "SCALAR"
    }
  ],
  "asset": {
    "extras": {
      "author": "ROY (https://sketchfab.com/roy.gearloft.in)",
      "license": "CC-BY-4.0 (http://creativecommons.org/licenses/by/4.0/)",
      "source": "https://sketchfab.com/3d-models/off-road-tires-187ec95da53843cb83b0412bcd97e836",
      "title": "Off-road Tires"
    },
    "generator": "Sketchfab-13.83.0",
    "version": "2.0"
  },
  "bufferViews": [
    {
      "buffer": 0,
      "byteLength": 277848,
      "name": "floatBufferViews",
      "target": 34963
    },
    {
      "buffer": 0,
      "byteLength": 786144,
      "byteOffset": 277848,
      "byteStride": 12,
      "name": "floatBufferViews",
      "target": 34962
    }
  ],
  "buffers": [
    {
      "byteLength": 1063992,
      "uri": "scene.bin"
    }
  ],
  "materials": [
    {
      "doubleSided": true,
      "name": "Material.010",
      "pbrMetallicRoughness": {
        "baseColorFactor": [
          0.0188483,
          0.0188483,
          0.0188483,
          1.0
        ],
        "metallicFactor": 0.32152478940888196,
        "roughnessFactor": 0.9798125099047921
      }
    },
    {
      "doubleSided": true,
      "name": "Material.009",
      "pbrMetallicRoughness": {
        "baseColorFactor": [
          0.147313,
          0.147313,
          0.147313,
          1.0
        ],
        "metallicFactor": 0.717949,
        "roughnessFactor": 0.5
      }
    }
  ],
  "meshes": [
    {
      "name": "Object_0",
      "primitives": [
        {
          "attributes": {
            "NORMAL": 1,
            "POSITION": 0
          },
          "indices": 2,
          "material": 0,
          "mode": 4
        }
      ]
    },
    {
      "name": "Object_1",
      "primitives": [
        {
          "attributes": {
            "NORMAL": 4,
            "POSITION": 3
          },
          "indices": 5,
          "material": 1,
          "mode": 4
        }
      ]
    },
    {
      "name": "Object_2",
      "primitives": [
        {
          "attributes": {
            "NORMAL": 7,
            "POSITION": 6
          },
          "indices": 8,
          "material": 0,
          "mode": 4
        }
      ]
    }
  ],
  "nodes": [
    {
      "children": [
        1
      ],
      "matrix": [
        -0.5263083420299068,
        6.221946127374802e-19,
        -0.002802115426076446,
        0.0,
        -0.002802115426076446,
        -1.1686392787477891e-16,
        0.5263083420299068,
        0.0,
        0.0,
        0.5263158082962036,
        1.1686558571892905e-16,
        0.0,
        0.0,
        0.0,
        0.0,
        1.0
      ],
      "name": "Sketchfab_model"
    },
    {
      "children": [
        2
      ],
      "name": "root"
    },
    {
      "children": [
        3,
        5,
        7
      ],
      "matrix": [
        1.0,
        0.0,
        0.0,
        0.0,
        0.0,
        2.220446049250313e-16,
        1.0,
        0.0,
        0.0,
        -1.0,
        2.220446049250313e-16,
        0.0,
        0.0,
        0.0,
        0.0,
        1.0
      ],
      "name": "GLTF_SceneRootNode"
    },
    {
      "children": [
        4
      ],
      "matrix": [
        1.0,
        0.0,
        0.0,
        0.0,
        0.0,
        -1.685873969314855e-07,
        0.9999999999999858,
        0.0,
        0.0,
        -0.9999999999999858,
        -1.685873969314855e-07,
        0.0,
        0.0,
        0.0,
        0.0,
        1.0
      ],
      "name": "Cylinder_0"
    },
    {
      "mesh": 0,
      "name": "Object_4"
    },
    {
      "children": [
        6
      ],
      "matrix": [
        1.0,
        0.0,
        0.0,
        0.0,
        0.0,
        -1.685873969314855e-07,
        0.9999999999999858,
        0.0,
        0.0,
        -0.9999999999999858,
        -1.685873969314855e-07,
        0.0,
        0.0,
        0.0,
        0.0,
        1.0
      ],
      "name": "Plane.002_Plane.003_1"
    },
    {
      "mesh": 1,
      "name": "Object_6"
    },
    {
      "children": [
        8
      ],
      "matrix": [
        1.0,
        0.0,
        0.0,
        0.0,
        0.0,
        -1.685873969314855e-07,
        0.9999999999999858,
        0.0,
        0.0,
        -0.9999999999999858,
        -1.685873969314855e-07,
        0.0,
        0.0,
        0.0,
        0.0,
        1.0
      ],
      "name": "Plane.008_Plane.010_2"
    },
    {
      "mesh": 2,
      "name": "Object_8"
    }
  ],
  "scene": 0,
  "scenes": [
    {
      "name": "Sketchfab_Scene",
      "nodes": [
        0
      ]
    }
  ]
}
