{
  "accessors": [
    {
      "bufferView": 2,
      "componentType": 5126,
      "count": 28047,
      "max": [
        0.05621769651770592,
        0.018561378121376038,
        0.03144308924674988
      ],
      "min": [
        -0.059988245368003845,
        -9.313225191043273e-10,
        -0.032139234244823456
      ],
      "type": "VEC3"
    },
    {
      "bufferView": 2,
      "byteOffset": 336564,
      "componentType": 5126,
      "count": 28047,
      "max": [
        0.9967139363288879,
        0.9999961256980896,
        0.9998551607131958
      ],
      "min": [
        -0.9998982548713684,
        -0.999998927116394,
        -0.9999767541885376
      ],
      "type": "VEC3"
    },
    {
      "bufferView": 1,
      "componentType": 5126,
      "count": 28047,
      "max": [
        0.9999356269836426,
        0.999973475933075
      ],
      "min": [
        1.0186364306719042e-05,
        0.005332887172698975
      ],
      "type": "VEC2"
    },
    {
      "bufferView": 1,
      "byteOffset": 224376,
      "componentType": 5126,
      "count": 28047,
      "max": [
        0.9999356269836426,
        0.999973475933075
      ],
      "min": [
        1.0186364306719042e-05,
        0.005332887172698975
      ],
      "type": "VEC2"
    },
    {
      "bufferView": 1,
      "byteOffset": 448752,
      "componentType": 5126,
      "count": 28047,
      "max": [
        0.9999356269836426,
        0.999973475933075
      ],
      "min": [
        1.0186364306719042e-05,
        0.005332887172698975
      ],
      "type": "VEC2"
    },
    {
      "bufferView": 0,
      "componentType": 5125,
      "count": 150000,
      "type": "SCALAR"
    }
  ],
  "asset": {
    "extras": {
      "author": "saradiora (https://sketchfab.com/saradiora)",
      "license": "CC-BY-NC-SA-4.0 (http://creativecommons.org/licenses/by-nc-sa/4.0/)",
      "source": "https://sketchfab.com/3d-models/pick-up-snack-a8a32264af63472ca2f3cd34bb6a93a1",
      "title": "Pick up snack"
    },
    "generator": "Sketchfab-16.12.0",
    "version": "2.0"
  },
  "bufferViews": [
    {
      "buffer": 0,
      "byteLength": 600000,
      "name": "floatBufferViews",
      "target": 34963
    },
    {
      "buffer": 0,
      "byteLength": 673128,
      "byteOffset": 600000,
      "byteStride": 8,
      "name": "floatBufferViews",
      "target": 34962
    },
    {
      "buffer": 0,
      "byteLength": 673128,
      "byteOffset": 1273128,
      "byteStride": 12,
      "name": "floatBufferViews",
      "target": 34962
    }
  ],
  "buffers": [
    {
      "byteLength": 1946256,
      "uri": "scene.bin"
    }
  ],
  "extensionsUsed": [
    "KHR_materials_unlit"
  ],
  "images": [
    {
      "uri": "textures/material_0_baseColor.jpeg"
    }
  ],
  "materials": [
    {
      "extensions": {
        "KHR_materials_unlit": {}
      },
      "name": "material_0",
      "pbrMetallicRoughness": {
        "baseColorTexture": {
          "index": 0
        },
        "metallicFactor": 0.0
      }
    }
  ],
  "meshes": [
    {
      "name": "Object_0",
      "primitives": [
        {
          "attributes": {
            "NORMAL": 1,
            "POSITION": 0,
            "TEXCOORD_0": 2,
            "TEXCOORD_1": 3,
            "TEXCOORD_2": 4
          },
          "indices": 5,
          "material": 0,
          "mode": 4
        }
      ]
    }
  ],
  "nodes": [
    {
      "children": [
        1
      ],
      "matrix": [
        1.0,
        0.0,
        0.0,
        0.0,
        0.0,
        2.220446049250313e-16,
        -1.0,
        0.0,
        0.0,
        1.0,
        2.220446049250313e-16,
        0.0,
        0.0,
        0.0,
        0.0,
        1.0
      ],
      "name": "Sketchfab_model"
    },
    {
      "children": [
        2
      ],
      "name": "root"
    },
    {
      "children": [
        3
      ],
      "matrix": [
        1.0,
        0.0,
        0.0,
        0.0,
        0.0,
        2.220446049250313e-16,
        1.0,
        0.0,
        0.0,
        -1.0,
        2.220446049250313e-16,
        0.0,
        0.0,
        0.0,
        0.0,
        1.0
      ],
      "name": "GLTF_SceneRootNode"
    },
    {
      "children": [
        4
      ],
      "name": "_0"
    },
    {
      "mesh": 0,
      "name": "Object_4"
    }
  ],
  "samplers": [
    {
      "magFilter": 9729,
      "minFilter": 9987,
      "wrapS": 10497,
      "wrapT": 10497
    }
  ],
  "scene": 0,
  "scenes": [
    {
      "name": "Sketchfab_Scene",
      "nodes": [
        0
      ]
    }
  ],
  "textures": [
    {
      "sampler": 0,
      "source": 0
    }
  ]
}
