{
  "accessors": [
    {
      "bufferView": 2,
      "componentType": 5126,
      "count": 22804,
      "max": [
        0.4696880877017975,
        0.23602360486984253,
        1.593413233757019
      ],
      "min": [
        -0.47492966055870056,
        -0.2802233099937439,
        -1.5720795392990112
      ],
      "type": "VEC3"
    },
    {
      "bufferView": 2,
      "byteOffset": 273648,
      "componentType": 5126,
      "count": 22804,
      "max": [
        1.0,
        1.0,
        1.0
      ],
      "min": [
        -1.0,
        -1.0,
        -1.0
      ],
      "type": "VEC3"
    },
    {
      "bufferView": 3,
      "componentType": 5126,
      "count": 22804,
      "max": [
        1.0,
        0.999995768070221,
        1.0,
        1.0
      ],
      "min": [
        -1.0,
        -1.0,
        -1.0,
        -1.0
      ],
      "type": "VEC4"
    },
    {
      "bufferView": 1,
      "componentType": 5126,
      "count": 22804,
      "max": [
        1.0,
        0.9982550144195557
      ],
      "min": [
        0.0,
        0.0
      ],
      "type": "VEC2"
    },
    {
      "bufferView": 1,
      "byteOffset": 182432,
      "componentType": 5126,
      "count": 22804,
      "max": [
        1.0,
        0.9982550144195557
      ],
      "min": [
        0.0,
        0.0
      ],
      "type": "VEC2"
    },
    {
      "bufferView": 1,
      "byteOffset": 364864,
      "componentType": 5126,
      "count": 22804,
      "max": [
        1.0,
        0.9982550144195557
      ],
      "min": [
        0.0,
        0.0
      ],
      "type": "VEC2"
    },
    {
      "bufferView": 1,
      "byteOffset": 547296,
      "componentType": 5126,
      "count": 22804,
      "max": [
        1.0,
        0.9982550144195557
      ],
      "min": [
        0.0,
        0.0
      ],
      "type": "VEC2"
    },
    {
      "bufferView": 0,
      "componentType": 5125,
      "count": 118272,
      "type": "SCALAR"
    }
  ],
  "asset": {
    "extras": {
      "author": "duck123acb (https://sketchfab.com/duck123acb)",
      "license": "CC-BY-4.0 (http://creativecommons.org/licenses/by/4.0/)",
      "source": "https://sketchfab.com/3d-models/satellite-phone-20a2f09d8a4b48e0b4fe0dedb740eb2f",
      "title": "Satellite Phone"
    },
    "generator": "Sketchfab-15.25.0",
    "version": "2.0"
  },
  "bufferViews": [
    {
      "buffer": 0,
      "byteLength": 473088,
      "name": "floatBufferViews",
      "target": 34963
    },
    {
      "buffer": 0,
      "byteLength": 729728,
      "byteOffset": 473088,
      "byteStride": 8,
      "name": "floatBufferViews",
      "target": 34962
    },
    {
      "buffer": 0,
      "byteLength": 547296,
      "byteOffset": 1202816,
      "byteStride": 12,
      "name": "floatBufferViews",
      "target": 34962
    },
    {
      "buffer": 0,
      "byteLength": 364864,
      "byteOffset": 1750112,
      "byteStride": 16,
      "name": "floatBufferViews",
      "target": 34962
    }
  ],
  "buffers": [
    {
      "byteLength": 2114976,
      "uri": "scene.bin"
    }
  ],
  "extensionsUsed": [
    "KHR_materials_specular"
  ],
  "images": [
    {
      "uri": "textures/Phone_baseColor.png"
    },
    {
      "uri": "textures/Phone_metallicRoughness.png"
    },
    {
      "uri": "textures/Phone_emissive.png"
    },
    {
      "uri": "textures/Phone_normal.png"
    }
  ],
  "materials": [
    {
      "emissiveFactor": [
        1.0,
        1.0,
        1.0
      ],
      "emissiveTexture": {
        "index": 2
      },
      "extensions": {
        "KHR_materials_specular": {
          "specularColorFactor": [
            1.0,
            1.0,
            1.0
          ],
          "specularFactor": 1.0
        }
      },
      "name": "Phone",
      "normalTexture": {
        "index": 3,
        "scale": 0.5348587729029269
      },
      "pbrMetallicRoughness": {
        "baseColorTexture": {
          "index": 0
        },
        "metallicFactor": 0.0,
        "metallicRoughnessTexture": {
          "index": 1
        },
        "roughnessFactor": 0.778669039753264
      }
    }
  ],
  "meshes": [
    {
      "name": "Phone_Phone_0",
      "primitives": [
        {
          "attributes": {
            "NORMAL": 1,
            "POSITION": 0,
            "TANGENT": 2,
            "TEXCOORD_0": 3,
            "TEXCOORD_1": 4,
            "TEXCOORD_2": 5,
            "TEXCOORD_3": 6
          },
          "indices": 7,
          "material": 0,
          "mode": 4
        }
      ]
    }
  ],
  "nodes": [
    {
      "children": [
        1
      ],
      "matrix": [
        0.08446149528026581,
        0.0,
        0.0,
        0.0,
        0.0,
        1.8754219350884018e-17,
        -0.08446149528026581,
        0.0,
        0.0,
        0.08446149528026581,
        1.8754219350884018e-17,
        0.0,
        0.0,
        0.0,
        0.0,
        1.0
      ],
      "name": "Sketchfab_model"
    },
    {
      "children": [
        2
      ],
      "matrix": [
        0.009999999776482582,
        0.0,
        0.0,
        0.0,
        0.0,
        0.0,
        0.009999999776482582,
        0.0,
        0.0,
        -0.009999999776482582,
        0.0,
        0.0,
        0.0,
        0.0,
        0.0,
        1.0
      ],
      "name": "7c9544103d6a4f96aa4fde606cf333b4.fbx"
    },
    {
      "children": [
        3
      ],
      "name": "RootNode"
    },
    {
      "children": [
        4
      ],
      "matrix": [
        100.0,
        0.0,
        0.0,
        0.0,
        0.0,
        -1.629206793918314e-05,
        -99.99999999999868,
        0.0,
        0.0,
        99.99999999999868,
        -1.629206793918314e-05,
        0.0,
        0.0,
        0.0,
        0.0,
        1.0
      ],
      "name": "Phone"
    },
    {
      "mesh": 0,
      "name": "Phone_Phone_0"
    }
  ],
  "samplers": [
    {
      "magFilter": 9729,
      "minFilter": 9987,
      "wrapS": 10497,
      "wrapT": 10497
    }
  ],
  "scene": 0,
  "scenes": [
    {
      "name": "Sketchfab_Scene",
      "nodes": [
        0
      ]
    }
  ],
  "textures": [
    {
      "sampler": 0,
      "source": 0
    },
    {
      "sampler": 0,
      "source": 1
    },
    {
      "sampler": 0,
      "source": 2
    },
    {
      "sampler": 0,
      "source": 3
    }
  ]
}
