{
  "accessors": [
    {
      "bufferView": 2,
      "componentType": 5126,
      "count": 345,
      "max": [
        0.7697734832763672,
        0.6302571296691895,
        0.7697734236717224
      ],
      "min": [
        -0.7697734832763672,
        0.07830128818750381,
        -0.7697734236717224
      ],
      "type": "VEC3"
    },
    {
      "bufferView": 2,
      "byteOffset": 4140,
      "componentType": 5126,
      "count": 345,
      "max": [
        1.0,
        1.0,
        1.0
      ],
      "min": [
        -1.0,
        -1.0,
        -1.0
      ],
      "type": "VEC3"
    },
    {
      "bufferView": 1,
      "componentType": 5126,
      "count": 345,
      "max": [
        1.0,
        0.5
      ],
      "min": [
        0.0,
        0.0
      ],
      "type": "VEC2"
    },
    {
      "bufferView": 0,
      "componentType": 5125,
      "count": 930,
      "type": "SCALAR"
    },
    {
      "bufferView": 2,
      "byteOffset": 8280,
      "componentType": 5126,
      "count": 1537,
      "max": [
        0.7672947645187378,
        0.6626518368721008,
        0.7598869204521179
      ],
      "min": [
        -0.7598869800567627,
        -0.46475714445114136,
        -0.7598869204521179
      ],
      "type": "VEC3"
    },
    {
      "bufferView": 2,
      "byteOffset": 26724,
      "componentType": 5126,
      "count": 1537,
      "max": [
        1.0,
        1.0,
        1.0
      ],
      "min": [
        -1.0,
        -1.0,
        -1.0
      ],
      "type": "VEC3"
    },
    {
      "bufferView": 1,
      "byteOffset": 2760,
      "componentType": 5126,
      "count": 1537,
      "max": [
        1.0,
        0.5
      ],
      "min": [
        0.0,
        0.0
      ],
      "type": "VEC2"
    },
    {
      "bufferView": 0,
      "byteOffset": 3720,
      "componentType": 5125,
      "count": 3516,
      "type": "SCALAR"
    },
    {
      "bufferView": 2,
      "byteOffset": 45168,
      "componentType": 5126,
      "count": 483,
      "max": [
        0.02039097435772419,
        0.6246216297149658,
        0.1667678952217102
      ],
      "min": [
        -0.02039097435772419,
        -0.6777471899986267,
        -0.020391074940562248
      ],
      "type": "VEC3"
    },
    {
      "bufferView": 2,
      "byteOffset": 50964,
      "componentType": 5126,
      "count": 483,
      "max": [
        1.0,
        0.9996525645256042,
        1.0
      ],
      "min": [
        -1.0,
        -1.0,
        -1.0
      ],
      "type": "VEC3"
    },
    {
      "bufferView": 1,
      "byteOffset": 15056,
      "componentType": 5126,
      "count": 483,
      "max": [
        0.996650218963623,
        0.49995535612106323
      ],
      "min": [
        0.0011165837058797479,
        0.035435162484645844
      ],
      "type": "VEC2"
    },
    {
      "bufferView": 0,
      "byteOffset": 17784,
      "componentType": 5125,
      "count": 2346,
      "type": "SCALAR"
    },
    {
      "bufferView": 2,
      "byteOffset": 56760,
      "componentType": 5126,
      "count": 957,
      "max": [
        0.064525306224823,
        0.6626518368721008,
        0.04744497314095497
      ],
      "min": [
        -0.06374286115169525,
        -0.46475714445114136,
        -0.06403405964374542
      ],
      "type": "VEC3"
    },
    {
      "bufferView": 2,
      "byteOffset": 68244,
      "componentType": 5126,
      "count": 957,
      "max": [
        1.0,
        1.0,
        1.0
      ],
      "min": [
        -1.0,
        -1.0,
        -1.0
      ],
      "type": "VEC3"
    },
    {
      "bufferView": 1,
      "byteOffset": 18920,
      "componentType": 5126,
      "count": 957,
      "max": [
        1.0,
        1.0
      ],
      "min": [
        0.0,
        0.01000000536441803
      ],
      "type": "VEC2"
    },
    {
      "bufferView": 0,
      "byteOffset": 27168,
      "componentType": 5125,
      "count": 2298,
      "type": "SCALAR"
    },
    {
      "bufferView": 2,
      "byteOffset": 79728,
      "componentType": 5126,
      "count": 1590,
      "max": [
        0.06836658716201782,
        0.6302571296691895,
        0.06807539612054825
      ],
      "min": [
        -0.06758414208889008,
        -0.41022324562072754,
        -0.06787534058094025
      ],
      "type": "VEC3"
    },
    {
      "bufferView": 2,
      "byteOffset": 98808,
      "componentType": 5126,
      "count": 1590,
      "max": [
        1.0,
        1.0,
        1.0
      ],
      "min": [
        -1.0,
        -1.0,
        -1.0
      ],
      "type": "VEC3"
    },
    {
      "bufferView": 1,
      "byteOffset": 26576,
      "componentType": 5126,
      "count": 1590,
      "max": [
        1.0,
        1.0
      ],
      "min": [
        0.0,
        0.019701868295669556
      ],
      "type": "VEC2"
    },
    {
      "bufferView": 0,
      "byteOffset": 36360,
      "componentType": 5125,
      "count": 3444,
      "type": "SCALAR"
    },
    {
      "bufferView": 2,
      "byteOffset": 117888,
      "componentType": 5126,
      "count": 483,
      "max": [
        0.02039097435772419,
        0.6246216297149658,
        0.1667678952217102
      ],
      "min": [
        -0.02039097435772419,
        -0.6777471899986267,
        -0.020391074940562248
      ],
      "type": "VEC3"
    },
    {
      "bufferView": 2,
      "byteOffset": 123684,
      "componentType": 5126,
      "count": 483,
      "max": [
        1.0,
        0.9996525645256042,
        1.0
      ],
      "min": [
        -1.0,
        -1.0,
        -1.0
      ],
      "type": "VEC3"
    },
    {
      "bufferView": 1,
      "byteOffset": 39296,
      "componentType": 5126,
      "count": 483,
      "max": [
        0.996650218963623,
        0.49995535612106323
      ],
      "min": [
        0.0011165837058797479,
        0.035435162484645844
      ],
      "type": "VEC2"
    },
    {
      "bufferView": 0,
      "byteOffset": 50136,
      "componentType": 5125,
      "count": 2346,
      "type": "SCALAR"
    },
    {
      "bufferView": 2,
      "byteOffset": 129480,
      "componentType": 5126,
      "count": 3674,
      "max": [
        0.20499885082244873,
        1.1687848567962646,
        0.20499885082244873
      ],
      "min": [
        -0.20499885082244873,
        0.0013581528328359127,
        -0.20499885082244873
      ],
      "type": "VEC3"
    },
    {
      "bufferView": 2,
      "byteOffset": 173568,
      "componentType": 5126,
      "count": 3674,
      "max": [
        1.0,
        1.0,
        1.0
      ],
      "min": [
        -1.0,
        -1.0,
        -1.0
      ],
      "type": "VEC3"
    },
    {
      "bufferView": 1,
      "byteOffset": 43160,
      "componentType": 5126,
      "count": 3674,
      "max": [
        1.0,
        1.0
      ],
      "min": [
        0.0,
        0.0
      ],
      "type": "VEC2"
    },
    {
      "bufferView": 0,
      "byteOffset": 59520,
      "componentType": 5125,
      "count": 10308,
      "type": "SCALAR"
    },
    {
      "bufferView": 2,
      "byteOffset": 217656,
      "componentType": 5126,
      "count": 6545,
      "max": [
        0.2286781519651413,
        0.4839305579662323,
        0.38206207752227783
      ],
      "min": [
        -0.20499886572360992,
        -0.6834962964057922,
        -0.10131268203258514
      ],
      "type": "VEC3"
    },
    {
      "bufferView": 2,
      "byteOffset": 296196,
      "componentType": 5126,
      "count": 6545,
      "max": [
        1.0,
        1.0,
        1.0
      ],
      "min": [
        -1.0,
        -1.0,
        -1.0
      ],
      "type": "VEC3"
    },
    {
      "bufferView": 1,
      "byteOffset": 72552,
      "componentType": 5126,
      "count": 6545,
      "max": [
        1.0,
        1.0
      ],
      "min": [
        0.0,
        0.0
      ],
      "type": "VEC2"
    },
    {
      "bufferView": 0,
      "byteOffset": 100752,
      "componentType": 5125,
      "count": 17202,
      "type": "SCALAR"
    },
    {
      "bufferView": 2,
      "byteOffset": 374736,
      "componentType": 5126,
      "count": 4770,
      "max": [
        0.2478160411119461,
        0.41541075706481934,
        0.40051546692848206
      ],
      "min": [
        -0.06758424639701843,
        -0.6287947297096252,
        -0.12173672765493393
      ],
      "type": "VEC3"
    },
    {
      "bufferView": 2,
      "byteOffset": 431976,
      "componentType": 5126,
      "count": 4770,
      "max": [
        1.0,
        0.9991956353187561,
        0.9994780421257019
      ],
      "min": [
        -1.0,
        -0.9969500303268433,
        -0.9994099140167236
      ],
      "type": "VEC3"
    },
    {
      "bufferView": 1,
      "byteOffset": 124912,
      "componentType": 5126,
      "count": 4770,
      "max": [
        1.0,
        1.0
      ],
      "min": [
        0.0,
        0.019701868295669556
      ],
      "type": "VEC2"
    },
    {
      "bufferView": 0,
      "byteOffset": 169560,
      "componentType": 5125,
      "count": 10332,
      "type": "SCALAR"
    },
    {
      "bufferView": 2,
      "byteOffset": 489216,
      "componentType": 5126,
      "count": 1449,
      "max": [
        0.36192992329597473,
        0.6684533953666687,
        0.5144302845001221
      ],
      "min": [
        -0.02039109729230404,
        -0.6230655908584595,
        -0.24374231696128845
      ],
      "type": "VEC3"
    },
    {
      "bufferView": 2,
      "byteOffset": 506604,
      "componentType": 5126,
      "count": 1449,
      "max": [
        1.0,
        0.9991594552993774,
        0.9998758435249329
      ],
      "min": [
        -1.0,
        -0.9999179244041443,
        -0.9998650550842285
      ],
      "type": "VEC3"
    },
    {
      "bufferView": 1,
      "byteOffset": 163072,
      "componentType": 5126,
      "count": 1449,
      "max": [
        0.996650218963623,
        0.49995535612106323
      ],
      "min": [
        0.0011165837058797479,
        0.035435162484645844
      ],
      "type": "VEC2"
    },
    {
      "bufferView": 0,
      "byteOffset": 210888,
      "componentType": 5125,
      "count": 7038,
      "type": "SCALAR"
    }
  ],
  "asset": {
    "extras": {
      "author": "lupas (https://sketchfab.com/ivan.anton.albarracin)",
      "license": "CC-BY-4.0 (http://creativecommons.org/licenses/by/4.0/)",
      "source": "https://sketchfab.com/3d-models/simple-umbrellas-and-a-classic-umbrella-stand-7e9ab065b38c4222a7f9e0f07284ec15",
      "title": "simple umbrellas and a classic umbrella stand"
    },
    "generator": "Sketchfab-15.22.0",
    "version": "2.0"
  },
  "bufferViews": [
    {
      "buffer": 0,
      "byteLength": 239040,
      "name": "floatBufferViews",
      "target": 34963
    },
    {
      "buffer": 0,
      "byteLength": 174664,
      "byteOffset": 239040,
      "byteStride": 8,
      "name": "floatBufferViews",
      "target": 34962
    },
    {
      "buffer": 0,
      "byteLength": 523992,
      "byteOffset": 413704,
      "byteStride": 12,
      "name": "floatBufferViews",
      "target": 34962
    }
  ],
  "buffers": [
    {
      "byteLength": 937696,
      "uri": "scene.bin"
    }
  ],
  "materials": [
    {
      "doubleSided": true,
      "name": "paraigues_black",
      "pbrMetallicRoughness": {
        "baseColorFactor": [
          0.0,
          0.0,
          0.0,
          1.0
        ],
        "metallicFactor": 0.0
      }
    },
    {
      "doubleSided": true,
      "name": "paraigues_metal",
      "pbrMetallicRoughness": {
        "baseColorFactor": [
          0.192328,
          0.228193,
          0.246195,
          1.0
        ],
        "metallicFactor": 0.0,
        "roughnessFactor": 0.9686231483980823
      }
    },
    {
      "doubleSided": true,
      "name": "paraigues_brown",
      "pbrMetallicRoughness": {
        "baseColorFactor": [
          0.504161,
          0.0519238,
          0.060462,
          1.0
        ],
        "metallicFactor": 0.0,
        "roughnessFactor": 0.9635795445484758
      }
    }
  ],
  "meshes": [
    {
      "name": "classic_umbrela_opened_paraigues_black_0",
      "primitives": [
        {
          "attributes": {
            "NORMAL": 1,
            "POSITION": 0,
            "TEXCOORD_0": 2
          },
          "indices": 3,
          "material": 0,
          "mode": 4
        }
      ]
    },
    {
      "name": "classic_umbrela_opened_paraigues_metal_0",
      "primitives": [
        {
          "attributes": {
            "NORMAL": 5,
            "POSITION": 4,
            "TEXCOORD_0": 6
          },
          "indices": 7,
          "material": 1,
          "mode": 4
        }
      ]
    },
    {
      "name": "classic_umbrela_opened_paraigues_brown_0",
      "primitives": [
        {
          "attributes": {
            "NORMAL": 9,
            "POSITION": 8,
            "TEXCOORD_0": 10
          },
          "indices": 11,
          "material": 2,
          "mode": 4
        }
      ]
    },
    {
      "name": "classic_umbrela_closed_paraigues_metal_0",
      "primitives": [
        {
          "attributes": {
            "NORMAL": 13,
            "POSITION": 12,
            "TEXCOORD_0": 14
          },
          "indices": 15,
          "material": 1,
          "mode": 4
        }
      ]
    },
    {
      "name": "classic_umbrela_closed_paraigues_black_0",
      "primitives": [
        {
          "attributes": {
            "NORMAL": 17,
            "POSITION": 16,
            "TEXCOORD_0": 18
          },
          "indices": 19,
          "material": 0,
          "mode": 4
        }
      ]
    },
    {
      "name": "classic_umbrela_closed_paraigues_brown_0",
      "primitives": [
        {
          "attributes": {
            "NORMAL": 21,
            "POSITION": 20,
            "TEXCOORD_0": 22
          },
          "indices": 23,
          "material": 2,
          "mode": 4
        }
      ]
    },
    {
      "name": "classic_umbrella_stand_paraigues_metal_0",
      "primitives": [
        {
          "attributes": {
            "NORMAL": 25,
            "POSITION": 24,
            "TEXCOORD_0": 26
          },
          "indices": 27,
          "material": 1,
          "mode": 4
        }
      ]
    },
    {
      "name": "classic_umbrela_closed.001_paraigues_metal_0",
      "primitives": [
        {
          "attributes": {
            "NORMAL": 29,
            "POSITION": 28,
            "TEXCOORD_0": 30
          },
          "indices": 31,
          "material": 1,
          "mode": 4
        }
      ]
    },
    {
      "name": "classic_umbrela_closed.001_paraigues_black_0",
      "primitives": [
        {
          "attributes": {
            "NORMAL": 33,
            "POSITION": 32,
            "TEXCOORD_0": 34
          },
          "indices": 35,
          "material": 0,
          "mode": 4
        }
      ]
    },
    {
      "name": "classic_umbrela_closed.001_paraigues_brown_0",
      "primitives": [
        {
          "attributes": {
            "NORMAL": 37,
            "POSITION": 36,
            "TEXCOORD_0": 38
          },
          "indices": 39,
          "material": 2,
          "mode": 4
        }
      ]
    }
  ],
  "nodes": [
    {
      "children": [
        1
      ],
      "matrix": [
        1.0,
        0.0,
        0.0,
        0.0,
        0.0,
        2.220446049250313e-16,
        -1.0,
        0.0,
        0.0,
        1.0,
        2.220446049250313e-16,
        0.0,
        0.0,
        0.0,
        0.0,
        1.0
      ],
      "name": "Sketchfab_model"
    },
    {
      "children": [
        2
      ],
      "matrix": [
        1.0,
        0.0,
        0.0,
        0.0,
        0.0,
        0.0,
        1.0,
        0.0,
        0.0,
        -1.0,
        0.0,
        0.0,
        0.0,
        0.0,
        0.0,
        1.0
      ],
      "name": "fe5cc011692d4af4af60c1fb73b70196.fbx"
    },
    {
      "children": [
        3,
        7,
        11,
        13
      ],
      "name": "RootNode"
    },
    {
      "children": [
        4,
        5,
        6
      ],
      "matrix": [
        1.0,
        0.0,
        0.0,
        0.0,
        0.0,
        1.0,
        0.0,
        0.0,
        0.0,
        0.0,
        1.0,
        0.0,
        2.049850422736199e-08,
        0.6832586526870728,
        -1.0740207433700562,
        1.0
      ],
      "name": "classic_umbrela_opened"
    },
    {
      "mesh": 0,
      "name": "classic_umbrela_opened_paraigues_black_0"
    },
    {
      "mesh": 1,
      "name": "classic_umbrela_opened_paraigues_metal_0"
    },
    {
      "mesh": 2,
      "name": "classic_umbrela_opened_paraigues_brown_0"
    },
    {
      "children": [
        8,
        9,
        10
      ],
      "matrix": [
        1.0,
        0.0,
        0.0,
        0.0,
        0.0,
        1.0,
        0.0,
        0.0,
        0.0,
        0.0,
        1.0,
        0.0,
        2.049850422736199e-08,
        0.6832586526870728,
        -0.07101470977067947,
        1.0
      ],
      "name": "classic_umbrela_closed"
    },
    {
      "mesh": 3,
      "name": "classic_umbrela_closed_paraigues_metal_0"
    },
    {
      "mesh": 4,
      "name": "classic_umbrela_closed_paraigues_black_0"
    },
    {
      "mesh": 5,
      "name": "classic_umbrela_closed_paraigues_brown_0"
    },
    {
      "children": [
        12
      ],
      "matrix": [
        1.0,
        0.0,
        0.0,
        0.0,
        0.0,
        1.0,
        0.0,
        0.0,
        0.0,
        0.0,
        1.0,
        0.0,
        2.049850422736199e-08,
        -0.0015957951545715332,
        0.698129415512085,
        1.0
      ],
      "name": "classic_umbrella_stand"
    },
    {
      "mesh": 6,
      "name": "classic_umbrella_stand_paraigues_metal_0"
    },
    {
      "children": [
        14,
        15,
        16
      ],
      "matrix": [
        1.0,
        0.0,
        0.0,
        0.0,
        0.0,
        1.0,
        0.0,
        0.0,
        0.0,
        0.0,
        1.0,
        0.0,
        2.049850422736199e-08,
        0.6832586526870728,
        1.4904577732086182,
        1.0
      ],
      "name": "classic_umbrela_closed.001"
    },
    {
      "mesh": 7,
      "name": "classic_umbrela_closed.001_paraigues_metal_0"
    },
    {
      "mesh": 8,
      "name": "classic_umbrela_closed.001_paraigues_black_0"
    },
    {
      "mesh": 9,
      "name": "classic_umbrela_closed.001_paraigues_brown_0"
    }
  ],
  "scene": 0,
  "scenes": [
    {
      "name": "Sketchfab_Scene",
      "nodes": [
        0
      ]
    }
  ]
}
