{
  "accessors": [
    {
      "bufferView": 2,
      "componentType": 5126,
      "count": 65532,
      "max": [
        0.20749486982822418,
        7.587005138397217,
        0.49606454372406006
      ],
      "min": [
        -0.2998465895652771,
        6.872367858886719,
        -0.38279879093170166
      ],
      "type": "VEC3"
    },
    {
      "bufferView": 2,
      "byteOffset": 786384,
      "componentType": 5126,
      "count": 65532,
      "max": [
        0.9999760985374451,
        0.9992793202400208,
        0.9992634057998657
      ],
      "min": [
        -0.9999977350234985,
        -0.999821126461029,
        -0.9999980330467224
      ],
      "type": "VEC3"
    },
    {
      "bufferView": 3,
      "componentType": 5126,
      "count": 65532,
      "max": [
        0.95686274766922,
        0.9490196108818054,
        0.95686274766922,
        1.0
      ],
      "min": [
        0.0,
        0.0,
        0.0,
        1.0
      ],
      "type": "VEC4"
    },
    {
      "bufferView": 1,
      "componentType": 5126,
      "count": 65532,
      "max": [
        0.9997599720954895,
        0.9158430099487305
      ],
      "min": [
        6.900000153109431e-05,
        7.599999662488699e-05
      ],
      "type": "VEC2"
    },
    {
      "bufferView": 0,
      "componentType": 5125,
      "count": 369531,
      "type": "SCALAR"
    },
    {
      "bufferView": 2,
      "byteOffset": 1572768,
      "componentType": 5126,
      "count": 3584,
      "max": [
        0.1575590819120407,
        7.463587760925293,
        0.46914684772491455
      ],
      "min": [
        -0.29980581998825073,
        7.036572456359863,
        -0.21923090517520905
      ],
      "type": "VEC3"
    },
    {
      "bufferView": 2,
      "byteOffset": 1615776,
      "componentType": 5126,
      "count": 3584,
      "max": [
        0.999914288520813,
        0.9959402680397034,
        0.9963255524635315
      ],
      "min": [
        -0.9999831318855286,
        -0.9994577765464783,
        -0.9993491768836975
      ],
      "type": "VEC3"
    },
    {
      "bufferView": 3,
      "byteOffset": 1048512,
      "componentType": 5126,
      "count": 3584,
      "max": [
        0.9098039269447327,
        0.9490196108818054,
        0.9529411792755127,
        1.0
      ],
      "min": [
        0.0,
        0.0,
        0.0,
        1.0
      ],
      "type": "VEC4"
    },
    {
      "bufferView": 1,
      "byteOffset": 524256,
      "componentType": 5126,
      "count": 3584,
      "max": [
        0.9812189936637878,
        0.9182040095329285
      ],
      "min": [
        2.4000000848900527e-05,
        0.004323999863117933
      ],
      "type": "VEC2"
    },
    {
      "bufferView": 0,
      "byteOffset": 1478124,
      "componentType": 5125,
      "count": 8667,
      "type": "SCALAR"
    }
  ],
  "asset": {
    "extras": {
      "author": "jackcress (https://sketchfab.com/jackcress)",
      "license": "CC-BY-4.0 (http://creativecommons.org/licenses/by/4.0/)",
      "source": "https://sketchfab.com/3d-models/medication-jc-9180344a1be2441ba75db44baee0b7b0",
      "title": "MEDICATION JC"
    },
    "generator": "Sketchfab-16.9.0",
    "version": "2.0"
  },
  "bufferViews": [
    {
      "buffer": 0,
      "byteLength": 1512792,
      "name": "floatBufferViews",
      "target": 34963
    },
    {
      "buffer": 0,
      "byteLength": 552928,
      "byteOffset": 1512792,
      "byteStride": 8,
      "name": "floatBufferViews",
      "target": 34962
    },
    {
      "buffer": 0,
      "byteLength": 1658784,
      "byteOffset": 2065720,
      "byteStride": 12,
      "name": "floatBufferViews",
      "target": 34962
    },
    {
      "buffer": 0,
      "byteLength": 1105856,
      "byteOffset": 3724504,
      "byteStride": 16,
      "name": "floatBufferViews",
      "target": 34962
    }
  ],
  "buffers": [
    {
      "byteLength": 4830360,
      "uri": "scene.bin"
    }
  ],
  "images": [
    {
      "uri": "textures/MEDICATION_baseColor.jpeg"
    }
  ],
  "materials": [
    {
      "doubleSided": true,
      "name": "MEDICATION",
      "pbrMetallicRoughness": {
        "baseColorTexture": {
          "index": 0
        },
        "metallicFactor": 0.0
      }
    }
  ],
  "meshes": [
    {
      "name": "Object_0",
      "primitives": [
        {
          "attributes": {
            "COLOR_0": 2,
            "NORMAL": 1,
            "POSITION": 0,
            "TEXCOORD_0": 3
          },
          "indices": 4,
          "material": 0,
          "mode": 4
        }
      ]
    },
    {
      "name": "Object_1",
      "primitives": [
        {
          "attributes": {
            "COLOR_0": 7,
            "NORMAL": 6,
            "POSITION": 5,
            "TEXCOORD_0": 8
          },
          "indices": 9,
          "material": 0,
          "mode": 4
        }
      ]
    }
  ],
  "nodes": [
    {
      "children": [
        1
      ],
      "matrix": [
        1.0,
        0.0,
        0.0,
        0.0,
        0.0,
        2.220446049250313e-16,
        -1.0,
        0.0,
        0.0,
        1.0,
        2.220446049250313e-16,
        0.0,
        0.0,
        0.0,
        0.0,
        1.0
      ],
      "name": "Sketchfab_model"
    },
    {
      "children": [
        2,
        3
      ],
      "name": "MEDICATION.obj.cleaner.materialmerger.gles"
    },
    {
      "mesh": 0,
      "name": "Object_2"
    },
    {
      "mesh": 1,
      "name": "Object_3"
    }
  ],
  "samplers": [
    {
      "magFilter": 9729,
      "minFilter": 9987,
      "wrapS": 10497,
      "wrapT": 10497
    }
  ],
  "scene": 0,
  "scenes": [
    {
      "name": "Sketchfab_Scene",
      "nodes": [
        0
      ]
    }
  ],
  "textures": [
    {
      "sampler": 0,
      "source": 0
    }
  ]
}
